<?xml version="1.0" encoding="utf-8"?>
<!DOCTYPE svg PUBLIC "-//W3C//DTD SVG 1.1//EN" "http://www.w3.org/Graphics/SVG/1.1/DTD/svg11.dtd">
<svg style="width:308px;height:308px;" version="1.1" id="图形" xmlns="http://www.w3.org/2000/svg" xmlns:xlink="http://www.w3.org/1999/xlink" x="0px" y="0px" width="1024px" height="1024px" viewBox="0 0 1024 1024" enable-background="new 0 0 1024 1024" xml:space="preserve">
  <path class="svgpath" data-index="path_0" fill="#D81E06" d="M559.56736 268.88832c8.80896-17.98528 18.77888-34.65472 30.96064-49.9136 35.82848-44.86656 81.48224-73.45024 138.83776-80.55424 61.4656-7.61728 115.9488 10.12608 162.75712 50.42432 41.2864 35.55328 65.49888 81.49248 78.49728 133.77408 7.4176 29.8176 10.6496 60.18688 9.8432 90.87616-0.85504 32.18816-10.83136 62.12096-24.49152 90.9376-21.85088 46.07232-51.47392 86.97728-84.68352 125.31328-76.27648 88.02688-163.73632 163.35744-260.60032 227.88096-13.3056 8.86912-27.15136 16.86528-41.50144 24.02816-6.41152 3.19872-11.79008 3.3088-18.2528-0.19072-22.44224-12.14208-43.712-26.11072-64.50048-40.80512-71.96672-50.8608-139.27936-107.25504-200.73472-170.4832-41.05216-42.25536-78.93248-87.12192-108.62592-138.32704-16.672-28.76544-29.9968-58.90304-36.08192-91.87584-3.75808-20.4352-3.09504-40.97152-1.376-61.4848 3.1744-37.97376 11.62496-74.7072 28.34176-109.14304 28.93952-59.66208 73.13536-102.98752 137.05216-123.4816 86.26944-27.66592 176.12544 3.75808 228.97152 78.89152 8.80768 12.52096 16.57088 25.63456 23.10528 39.49056C557.75616 265.66912 558.5728 267.01568 559.56736 268.88832z" />

</svg>
