<?xml version="1.0" encoding="utf-8"?>
<!DOCTYPE svg PUBLIC "-//W3C//DTD SVG 1.1//EN" "http://www.w3.org/Graphics/SVG/1.1/DTD/svg11.dtd">
<svg style="width:308px;height:308px;" version="1.1" id="图形" xmlns="http://www.w3.org/2000/svg" xmlns:xlink="http://www.w3.org/1999/xlink" x="0px" y="0px" width="1024px" height="1024px" viewBox="0 0 1024 1024" enable-background="new 0 0 1024 1024" xml:space="preserve">
  <path class="svgpath" data-index="path_0" fill="#DBDBDB" d="M819.189904 655.356973c-73.794189 0-137.221121 43.903191-166.620241 106.825633L350.935442 623.006589c23.597492-30.887364 38.164624-69.152886 38.164624-111.012896 0-42.023968-14.731091-80.352551-38.492542-111.403875L648.067095 251.828503c27.040633 68.232193 93.380991 116.814524 171.122809 116.814524 101.591556 0 184.32782-82.748876 184.32782-184.32782S920.78146 0 819.189904 0c-101.578943 0-184.302595 82.736264-184.302595 184.315207 0 9.257381 1.475632 18.11117 2.699018 26.952347L320.552567 369.79074c-31.719772-25.880307-71.700558-42.099642-115.755096-42.099642C103.142854 327.678487 20.482264 410.427363 20.482264 511.993694s82.66059 184.315207 184.315207 184.315207c44.142824 0 84.12361-16.219335 115.919055-42.175315l318.395881 146.793807c-2.610733 12.536562-4.237711 25.489328-4.237711 38.732175 0 101.604168 82.736264 184.32782 184.302595 184.32782 101.591556 0 184.32782-82.736264 184.32782-184.32782C1003.517723 738.093237 920.78146 655.356973 819.189904 655.356973L819.189904 655.356973z" />
<path class="svgpath" data-index="path_1" fill="#DBDBDB" d="M819.189904 983.03546" />

</svg>
